<svg width="20" height="21" xmlns="http://www.w3.org/2000/svg" xmlns:xlink="http://www.w3.org/1999/xlink"><defs><path id="a" d="M0 .14h20V8.42H0z"/></defs><g fill="none" fill-rule="evenodd"><path d="M8.789 1.433a4.106 4.106 0 014.102 4.102 4.106 4.106 0 01-4.102 4.102 4.106 4.106 0 01-4.102-4.102A4.106 4.106 0 018.79 1.433m0 9.375a5.28 5.28 0 005.274-5.273A5.28 5.28 0 008.789.261a5.28 5.28 0 00-5.274 5.274 5.28 5.28 0 005.274 5.273" fill="#00F2A9"/><g transform="translate(0 11.84)"><mask id="b" fill="#fff"><use xlink:href="#a"/></mask><path d="M15.898 7.25a2.933 2.933 0 01-2.93-2.93c0-.855.369-1.625.954-2.161l.006-.006a2.919 2.919 0 011.97-.763 2.933 2.933 0 012.93 2.93 2.933 2.933 0 01-2.93 2.93zm-14.7 0c.293-3.325 3.06-5.938 6.42-5.938H9.96c.851 0 1.761.209 2.623.595a4.09 4.09 0 00.447 5.343H1.197zm14.7-7.032c-.913 0-1.758.3-2.44.807C12.334.452 11.106.14 9.96.14H7.617a7.517 7.517 0 00-5.39 2.273A7.684 7.684 0 000 7.835c0 .324.262.586.586.586h15.312A4.107 4.107 0 0020 4.32 4.106 4.106 0 0015.898.218z" fill="#00F2A9" mask="url(#b)"/></g><path d="M17.07 15.574h-.586v-.586a.586.586 0 10-1.172 0v.586h-.586a.586.586 0 000 1.172h.586v.586a.586.586 0 101.172 0v-.586h.586a.586.586 0 000-1.172" fill="#00F2A9"/></g></svg>