<?xml version="1.0" encoding="UTF-8"?>
<svg width="20px" height="21px" viewBox="0 0 20 21" version="1.1" xmlns="http://www.w3.org/2000/svg" xmlns:xlink="http://www.w3.org/1999/xlink">
    <title>icon-people</title>
    <defs>
        <polygon id="path-1" points="-0.000105263158 0.139684211 19.9998947 0.139684211 19.9998947 8.42105263 -0.000105263158 8.42105263"></polygon>
    </defs>
    <g id="Page-1" stroke="none" stroke-width="1" fill="none" fill-rule="evenodd">
        <g id="Mobile" transform="translate(-140.000000, -261.000000)">
            <g id="icon-people" transform="translate(140.000000, 261.000000)">
                <path d="M8.78894737,1.43347368 C11.0505263,1.43347368 12.8905263,3.27347368 12.8905263,5.53505263 C12.8905263,7.79663158 11.0505263,9.63663158 8.78894737,9.63663158 C6.52736842,9.63663158 4.68736842,7.79663158 4.68736842,5.53505263 C4.68736842,3.27347368 6.52736842,1.43347368 8.78894737,1.43347368 M8.78894737,10.8082105 C11.6963158,10.8082105 14.0626316,8.44294737 14.0626316,5.53505263 C14.0626316,2.62715789 11.6963158,0.261368421 8.78894737,0.261368421 C5.88157895,0.261368421 3.51526316,2.62715789 3.51526316,5.53505263 C3.51526316,8.44294737 5.88157895,10.8082105 8.78894737,10.8082105" id="Fill-4" fill="#00F2A9"></path>
                <g id="Group-8" transform="translate(0.000000, 11.840526)">
                    <mask id="mask-2" fill="white">
                        <use xlink:href="#path-1"></use>
                    </mask>
                    <g id="Clip-7"></g>
                    <path d="M15.8983158,7.24915789 C14.2830526,7.24915789 12.9688421,5.93494737 12.9688421,4.31968421 C12.9688421,3.46494737 13.3367368,2.69494737 13.922,2.15863158 C13.9241053,2.15705263 13.9262105,2.15494737 13.9283158,2.15284211 C14.4488421,1.67915789 15.1404211,1.38968421 15.8983158,1.38968421 C17.5135789,1.38968421 18.8277895,2.70389474 18.8277895,4.31968421 C18.8277895,5.93494737 17.5135789,7.24915789 15.8983158,7.24915789 L15.8983158,7.24915789 Z M1.19726316,7.24915789 C1.49094737,3.92547368 4.25831579,1.31178947 7.61726316,1.31178947 L9.96094737,1.31178947 C10.812,1.31178947 11.722,1.52073684 12.5841053,1.90652632 C12.0893684,2.58389474 11.7967368,3.41810526 11.7967368,4.31968421 C11.7967368,5.466 12.2698947,6.50389474 13.0309474,7.24915789 L1.19726316,7.24915789 Z M15.8983158,0.218105263 C14.9851579,0.218105263 14.1398947,0.518105263 13.4572632,1.02494737 C12.3346316,0.452315789 11.1067368,0.139684211 9.96094737,0.139684211 L7.61726316,0.139684211 C5.58515789,0.139684211 3.672,0.947052632 2.22778947,2.41336842 C0.790947368,3.87178947 -0.000105263158,5.79757895 -0.000105263158,7.83494737 C-0.000105263158,8.15863158 0.262,8.42126316 0.585684211,8.42126316 L15.8983158,8.42126316 C18.1598947,8.42126316 19.9998947,6.58073684 19.9998947,4.31968421 C19.9998947,2.05810526 18.1598947,0.218105263 15.8983158,0.218105263 L15.8983158,0.218105263 Z" id="Fill-6" fill="#00F2A9" mask="url(#mask-2)"></path>
                </g>
                <path d="M17.0701579,15.5741053 L16.4843684,15.5741053 L16.4843684,14.9883158 C16.4843684,14.6646316 16.2222632,14.402 15.8980526,14.402 C15.5743684,14.402 15.3122632,14.6646316 15.3122632,14.9883158 L15.3122632,15.5741053 L14.7264737,15.5741053 C14.4027895,15.5741053 14.1406842,15.8367368 14.1406842,16.1598947 C14.1406842,16.4835789 14.4027895,16.7462105 14.7264737,16.7462105 L15.3122632,16.7462105 L15.3122632,17.332 C15.3122632,17.6556842 15.5743684,17.9177895 15.8980526,17.9177895 C16.2222632,17.9177895 16.4843684,17.6556842 16.4843684,17.332 L16.4843684,16.7462105 L17.0701579,16.7462105 C17.3938421,16.7462105 17.6559474,16.4835789 17.6559474,16.1598947 C17.6559474,15.8367368 17.3938421,15.5741053 17.0701579,15.5741053" id="Fill-9" fill="#00F2A9"></path>
            </g>
        </g>
    </g>
</svg>