<?xml version="1.0" encoding="UTF-8"?>
<svg width="20px" height="13px" viewBox="0 0 20 13" version="1.1" xmlns="http://www.w3.org/2000/svg" xmlns:xlink="http://www.w3.org/1999/xlink">
    <title>icon-dropdown</title>
    <defs>
        <polygon id="path-1" points="0.000393939394 0.304848485 19.9999394 0.304848485 19.9999394 11.1383636 0.000393939394 11.1383636"></polygon>
    </defs>
    <g id="Page-1" stroke="none" stroke-width="1" fill="none" fill-rule="evenodd">
        <g id="Mobile" transform="translate(-140.000000, -222.000000)">
            <g id="icon-dropdown" transform="translate(140.000000, 222.497000)">
                <mask id="mask-2" fill="white">
                    <use xlink:href="#path-1"></use>
                </mask>
                <g id="Clip-2"></g>
                <path d="M19.7553939,0.549272727 C19.4299394,0.223212121 18.9032727,0.223212121 18.5772121,0.549272727 L9.99963636,9.12624242 L1.42266667,0.549272727 C1.09660606,0.223212121 0.570545455,0.223212121 0.244484848,0.549272727 C-0.080969697,0.875333333 -0.080969697,1.40139394 0.244484848,1.72745455 L9.41115152,10.8941212 C9.5729697,11.0565455 9.78690909,11.1383636 9.99963636,11.1383636 C10.2135758,11.1383636 10.426303,11.0565455 10.5893333,10.8941212 L19.7553939,1.72745455 C20.0814545,1.40139394 20.0814545,0.875333333 19.7553939,0.549272727" id="Fill-1" fill="#00F2A9" mask="url(#mask-2)"></path>
            </g>
        </g>
    </g>
</svg>